<?xml version="1.0" encoding="utf-8"?>
<!-- Generator: Adobe Illustrator 15.1.0, SVG Export Plug-In . SVG Version: 6.00 Build 0)  -->
<!DOCTYPE svg PUBLIC "-//W3C//DTD SVG 1.1//EN" "http://www.w3.org/Graphics/SVG/1.1/DTD/svg11.dtd">
<svg version="1.1" id="Layer_1" xmlns="http://www.w3.org/2000/svg" xmlns:xlink="http://www.w3.org/1999/xlink" x="0px" y="0px"
	 width="143.275px" height="40px" viewBox="-12.5 0 143.275 40" enable-background="new -12.5 0 143.275 40" xml:space="preserve">
<g>
	<g>
		<path d="M43.426,12.533c-0.2-0.075-0.467-0.133-0.8-0.176c-0.333-0.043-0.756-0.062-1.27-0.062c-0.512,0-0.936,0.02-1.269,0.062
			c-0.333,0.042-0.6,0.101-0.8,0.176c-0.203,0.078-0.345,0.168-0.426,0.272c-0.085,0.104-0.126,0.225-0.126,0.363v18.524
			c0,0.14,0.041,0.262,0.126,0.364c0.081,0.105,0.223,0.19,0.426,0.262c0.2,0.067,0.467,0.12,0.8,0.155
			c0.333,0.035,0.756,0.051,1.269,0.051c0.514,0,0.937-0.016,1.27-0.051c0.333-0.034,0.6-0.088,0.8-0.155
			c0.201-0.071,0.346-0.156,0.428-0.262c0.084-0.103,0.125-0.225,0.125-0.364V13.168c0-0.138-0.04-0.26-0.125-0.363
			C43.771,12.7,43.627,12.61,43.426,12.533z"/>
		<path d="M41.335,9.63c1.166,0,1.963-0.202,2.395-0.604c0.429-0.402,0.645-1.132,0.645-2.185c0-1.013-0.208-1.717-0.623-2.112
			c-0.418-0.395-1.208-0.593-2.374-0.593c-1.179,0-1.981,0.204-2.404,0.614c-0.422,0.409-0.633,1.142-0.633,2.196
			c0,1.012,0.203,1.714,0.613,2.102C39.36,9.435,40.155,9.63,41.335,9.63z"/>
		<path d="M66.937,31.693c0,0.139-0.042,0.261-0.127,0.364c-0.082,0.105-0.221,0.19-0.414,0.261
			c-0.193,0.068-0.462,0.12-0.802,0.155c-0.339,0.035-0.759,0.052-1.259,0.052c-0.513,0-0.94-0.017-1.28-0.052
			c-0.34-0.034-0.606-0.087-0.801-0.155c-0.194-0.07-0.333-0.155-0.417-0.261c-0.083-0.104-0.124-0.226-0.124-0.364V21.099
			c0-0.903-0.066-1.609-0.198-2.123c-0.132-0.514-0.322-0.954-0.573-1.323c-0.249-0.366-0.571-0.651-0.969-0.854
			c-0.395-0.2-0.856-0.301-1.385-0.301c-0.665,0-1.337,0.244-2.016,0.728c-0.681,0.486-1.39,1.194-2.125,2.124v12.343
			c0,0.14-0.041,0.262-0.124,0.364c-0.086,0.105-0.227,0.19-0.428,0.262c-0.201,0.067-0.467,0.12-0.801,0.155
			c-0.333,0.035-0.756,0.052-1.27,0.052s-0.936-0.017-1.269-0.052c-0.334-0.034-0.602-0.088-0.802-0.155
			c-0.202-0.071-0.344-0.156-0.427-0.262c-0.083-0.103-0.125-0.225-0.125-0.364V13.127c0-0.139,0.034-0.26,0.104-0.364
			c0.07-0.104,0.195-0.191,0.374-0.26c0.182-0.069,0.413-0.121,0.698-0.156c0.286-0.035,0.643-0.053,1.073-0.053
			c0.443,0,0.811,0.018,1.103,0.053c0.292,0.035,0.519,0.086,0.676,0.156c0.159,0.069,0.273,0.156,0.343,0.26
			c0.071,0.104,0.104,0.225,0.104,0.364v2.143c1.026-1.108,2.072-1.941,3.132-2.497c1.063-0.556,2.168-0.833,3.321-0.833
			c1.262,0,2.327,0.208,3.194,0.625c0.867,0.417,1.569,0.982,2.103,1.696c0.534,0.714,0.919,1.55,1.155,2.508
			c0.236,0.957,0.354,2.11,0.354,3.455V31.693L66.937,31.693z"/>
		<path d="M76.817,12.533c-0.199-0.075-0.468-0.133-0.8-0.176c-0.333-0.043-0.756-0.062-1.27-0.062c-0.512,0-0.936,0.02-1.27,0.062
			c-0.333,0.042-0.598,0.101-0.793,0.176c-0.194,0.078-0.332,0.168-0.415,0.272c-0.082,0.104-0.124,0.225-0.124,0.363v19.045
			c0,0.832-0.042,1.44-0.125,1.823c-0.084,0.38-0.21,0.692-0.376,0.937c-0.166,0.242-0.38,0.419-0.644,0.529
			c-0.265,0.112-0.577,0.168-0.937,0.168c-0.25,0-0.481-0.019-0.697-0.053s-0.359-0.053-0.427-0.053c-0.111,0-0.2,0.034-0.27,0.105
			c-0.07,0.069-0.132,0.18-0.188,0.332c-0.055,0.153-0.093,0.357-0.115,0.614c-0.021,0.256-0.032,0.581-0.032,0.969
			c0,0.318,0.007,0.577,0.021,0.78c0.014,0.2,0.035,0.381,0.062,0.541c0.027,0.16,0.075,0.303,0.144,0.427
			c0.071,0.126,0.196,0.229,0.375,0.312c0.181,0.084,0.471,0.165,0.875,0.24C70.213,39.96,70.7,40,71.27,40
			c1.026,0,1.921-0.156,2.686-0.469c0.763-0.312,1.397-0.776,1.904-1.393c0.507-0.619,0.885-1.379,1.133-2.279
			c0.251-0.903,0.375-2.082,0.375-3.539V13.17c0-0.139-0.042-0.26-0.124-0.363C77.163,12.7,77.02,12.61,76.817,12.533z"/>
		<path d="M74.753,9.63c1.179,0,1.979-0.202,2.403-0.604c0.422-0.402,0.633-1.132,0.633-2.185c0-1.013-0.202-1.717-0.614-2.112
			c-0.409-0.395-1.202-0.593-2.382-0.593c-1.165,0-1.963,0.204-2.395,0.614c-0.43,0.409-0.645,1.142-0.645,2.196
			c0,1.012,0.208,1.714,0.623,2.102C72.796,9.435,73.586,9.63,74.753,9.63z"/>
		<path d="M85.191,9.63c1.166,0,1.964-0.202,2.394-0.604c0.428-0.402,0.645-1.132,0.645-2.185c0-1.013-0.207-1.717-0.624-2.112
			c-0.415-0.395-1.207-0.593-2.372-0.593c-1.179,0-1.981,0.204-2.404,0.614c-0.423,0.409-0.634,1.142-0.634,2.196
			c0,1.012,0.204,1.714,0.613,2.102C83.217,9.435,84.01,9.63,85.191,9.63z"/>
		<path d="M87.282,12.533c-0.2-0.075-0.468-0.133-0.801-0.176c-0.333-0.043-0.755-0.062-1.269-0.062c-0.513,0-0.936,0.02-1.27,0.062
			c-0.333,0.042-0.601,0.101-0.801,0.176c-0.201,0.078-0.344,0.168-0.427,0.272c-0.083,0.104-0.125,0.225-0.125,0.363v18.524
			c0,0.14,0.043,0.262,0.125,0.364c0.083,0.105,0.225,0.19,0.427,0.262c0.201,0.067,0.469,0.12,0.801,0.155
			c0.333,0.035,0.757,0.051,1.27,0.051s0.936-0.016,1.269-0.051c0.333-0.034,0.601-0.088,0.801-0.155
			c0.202-0.071,0.345-0.156,0.427-0.262c0.083-0.103,0.126-0.225,0.126-0.364V13.168c0-0.138-0.043-0.26-0.126-0.363
			C87.626,12.7,87.484,12.61,87.282,12.533z"/>
		<path d="M109.19,31.318c0.111,0.235,0.164,0.43,0.154,0.582c-0.006,0.153-0.107,0.278-0.3,0.373
			c-0.193,0.099-0.492,0.165-0.894,0.199c-0.404,0.034-0.938,0.051-1.605,0.051c-0.623,0-1.126-0.008-1.508-0.031
			c-0.381-0.021-0.68-0.061-0.894-0.125c-0.216-0.062-0.375-0.138-0.479-0.229c-0.104-0.09-0.184-0.206-0.239-0.344l-3.436-6.597
			l-3.433,6.597c-0.055,0.138-0.132,0.253-0.229,0.344s-0.246,0.167-0.449,0.229c-0.198,0.063-0.48,0.104-0.841,0.125
			c-0.36,0.021-0.832,0.031-1.417,0.031c-0.61,0-1.094-0.017-1.457-0.051c-0.36-0.034-0.624-0.102-0.792-0.199
			c-0.165-0.096-0.252-0.22-0.259-0.373c-0.007-0.152,0.051-0.347,0.176-0.582l5.142-9.138l-4.746-8.576
			c-0.126-0.25-0.191-0.46-0.197-0.634c-0.007-0.174,0.08-0.309,0.26-0.406c0.181-0.096,0.469-0.166,0.863-0.208
			c0.396-0.042,0.933-0.062,1.615-0.062c0.61,0,1.099,0.011,1.466,0.031c0.367,0.021,0.656,0.053,0.864,0.095
			c0.208,0.042,0.359,0.107,0.458,0.197c0.095,0.091,0.18,0.205,0.249,0.345l3.31,6.202l3.289-6.202
			c0.042-0.113,0.103-0.209,0.187-0.292c0.083-0.084,0.215-0.153,0.396-0.209c0.182-0.055,0.427-0.098,0.74-0.125
			c0.312-0.028,0.74-0.042,1.281-0.042c0.609,0,1.1,0.015,1.467,0.042c0.368,0.027,0.631,0.09,0.791,0.187
			c0.158,0.097,0.236,0.232,0.228,0.406c-0.007,0.173-0.085,0.399-0.238,0.675l-4.622,8.431L109.19,31.318z"/>
		<path d="M130.441,22.222c0,1.582-0.21,3.024-0.625,4.329c-0.416,1.305-1.047,2.429-1.893,3.373
			c-0.846,0.943-1.909,1.673-3.186,2.187c-1.276,0.513-2.768,0.769-4.474,0.769c-1.651,0-3.087-0.229-4.307-0.687
			c-1.223-0.457-2.234-1.123-3.041-1.998c-0.807-0.875-1.402-1.949-1.79-3.226c-0.388-1.276-0.583-2.733-0.583-4.371
			c0-1.582,0.212-3.028,0.634-4.34c0.423-1.312,1.059-2.436,1.906-3.373c0.846-0.936,1.905-1.66,3.174-2.174
			c1.27-0.513,2.758-0.771,4.464-0.771c1.665,0,3.109,0.226,4.329,0.676c1.222,0.452,2.231,1.114,3.029,1.988
			c0.797,0.874,1.391,1.95,1.779,3.226C130.248,19.108,130.441,20.571,130.441,22.222z M125.049,22.431
			c0-0.915-0.073-1.758-0.218-2.528c-0.147-0.771-0.392-1.44-0.74-2.009c-0.346-0.569-0.808-1.013-1.384-1.333
			c-0.576-0.319-1.302-0.479-2.174-0.479c-0.779,0-1.459,0.143-2.041,0.426c-0.583,0.286-1.062,0.701-1.438,1.25
			c-0.374,0.548-0.657,1.208-0.841,1.978c-0.187,0.771-0.28,1.647-0.28,2.632c0,0.917,0.074,1.759,0.229,2.528
			c0.15,0.771,0.397,1.441,0.736,2.011c0.34,0.567,0.803,1.01,1.385,1.322c0.583,0.312,1.304,0.468,2.165,0.468
			c0.793,0,1.478-0.143,2.061-0.427c0.583-0.285,1.061-0.698,1.438-1.238c0.373-0.542,0.651-1.198,0.83-1.969
			C124.958,24.293,125.049,23.416,125.049,22.431z"/>
	</g>
	<path fill="#00717F" d="M-9.811,30.916c0.058,0.413,0.164,0.818,0.306,1.214c1.751-1.295,4.957-2.463,9.187-3.907
		c0.559-0.191,1.099-0.375,1.604-0.552c-2.55-2.157-4.043-5.337-4.043-8.705c0-6.289,5.116-11.405,11.405-11.405
		c6.29,0,11.406,5.116,11.406,11.405c0,3.368-1.494,6.546-4.044,8.704c0.506,0.178,1.048,0.361,1.606,0.553
		c4.303,1.472,7.55,2.654,9.278,3.977l1.537-27.394c0.193-3.018-2.079-5.158-5.046-4.757l-30.89,4.167
		c-2.969,0.4-5.061,3.178-4.649,6.173L-9.811,30.916z"/>
	<path fill="#059898" d="M25.763,34.231c-0.007-0.007-0.013-0.009-0.021-0.015c-1.223-1.174-6.314-2.916-8.879-3.792
		c-1.101-0.377-2.142-0.732-2.991-1.052l-0.17-0.063l-0.143-0.115c-0.431-0.344-0.658-0.812-0.639-1.319
		c0.028-0.688,0.495-1.143,0.75-1.34l0.122-0.096c2.463-1.7,3.935-4.493,3.935-7.476c0-5.005-4.074-9.077-9.079-9.077
		c-5.006,0-9.079,4.072-9.079,9.077c0,2.86,1.353,5.548,3.636,7.262h0.011l0.303,0.226l0.474,0.461
		c0.253,0.34,0.373,0.73,0.339,1.125c-0.031,0.326-0.197,0.938-1,1.36l-0.14,0.062c-0.803,0.296-1.754,0.621-2.759,0.965
		c-2.509,0.857-7.436,2.541-8.794,3.715c1.177,1.454,2.914,2.477,4.73,2.605l24.673,1.751c1.964,0.139,3.761-0.807,4.818-2.328
		c0.005-0.007,0.393-0.534,0.474-0.807C26.41,35.123,26.346,34.736,25.763,34.231z"/>
</g>
</svg>
